<?xml version="1.0" standalone="no"?>
<!DOCTYPE svg PUBLIC "-//W3C//DTD SVG 20010904//EN"
 "http://www.w3.org/TR/2001/REC-SVG-20010904/DTD/svg10.dtd">
<svg version="1.0" xmlns="http://www.w3.org/2000/svg"
 width="1658.000000pt" height="820.000000pt" viewBox="0 0 1658.000000 820.000000"
 preserveAspectRatio="xMidYMid meet">
<metadata>
Created by potrace 1.16, written by Peter Selinger 2001-2019
</metadata>
<g transform="translate(0.000000,820.000000) scale(0.100000,-0.100000)"
fill="#000000" stroke="none">
<path d="M4890 7771 c0 -4 54 -92 120 -195 66 -103 120 -192 120 -197 0 -5 5
-9 10 -9 6 0 10 -4 10 -9 0 -5 52 -89 115 -187 64 -99 119 -186 123 -195 7
-16 160 -256 224 -352 21 -32 38 -60 38 -62 0 -5 151 -240 297 -462 62 -95
113 -174 113 -177 0 -3 41 -69 92 -148 50 -79 101 -159 113 -178 12 -19 64
-100 114 -178 50 -79 91 -145 91 -148 0 -2 17 -29 39 -61 55 -83 221 -344 221
-349 0 -2 17 -29 39 -61 35 -53 193 -301 216 -340 8 -14 110 -176 162 -259
106 -167 219 -344 261 -408 28 -45 55 -88 59 -96 4 -8 48 -78 98 -155 50 -77
94 -147 98 -155 4 -8 34 -58 68 -110 34 -52 95 -149 137 -215 41 -66 121 -192
177 -280 56 -88 156 -245 222 -350 66 -104 173 -273 238 -375 65 -102 123
-194 129 -205 14 -26 198 -316 237 -373 16 -23 29 -45 29 -47 0 -3 34 -57 75
-120 41 -64 75 -120 75 -125 0 -6 4 -10 9 -10 5 0 13 -9 16 -20 6 -20 15 -20
1416 -20 775 0 1409 4 1409 8 0 5 -10 17 -21 28 -55 49 -499 555 -499 569 0
13 115 15 1073 15 827 -1 1075 -3 1087 -13 9 -7 78 -86 155 -175 77 -90 164
-191 193 -225 29 -34 81 -95 114 -134 l61 -73 913 0 c503 0 914 2 914 5 0 5
-80 115 -293 405 -39 52 -97 131 -129 175 -33 44 -65 87 -71 95 -7 8 -23 31
-37 50 -23 34 -72 100 -252 345 -48 66 -116 158 -150 205 -34 47 -98 135 -143
195 -45 61 -114 155 -155 210 -40 55 -103 141 -140 190 -76 103 -149 203 -270
369 -47 64 -114 156 -150 204 -36 48 -105 143 -155 211 -121 167 -191 261
-309 421 -55 74 -131 178 -169 230 -39 52 -87 118 -107 145 -20 28 -63 86 -95
130 -32 44 -75 103 -95 130 -20 28 -82 111 -138 186 -55 75 -111 152 -124 172
-23 36 -49 49 -148 77 -25 7 -54 16 -65 20 -11 4 -40 13 -65 20 -25 7 -76 23
-115 35 -38 12 -90 28 -115 35 -25 7 -61 17 -80 23 -19 5 -44 13 -55 17 -11 4
-38 13 -60 19 -41 11 -191 56 -235 71 -14 4 -45 13 -70 20 -25 6 -53 16 -62
21 -10 5 -29 9 -42 9 -14 0 -28 5 -31 10 -3 6 -19 10 -36 10 -16 0 -37 4 -47
9 -9 5 -37 15 -62 22 -82 22 -265 81 -282 90 -10 5 -27 9 -38 9 -11 0 -28 4
-38 9 -9 5 -37 15 -62 21 -25 7 -54 16 -65 20 -11 4 -60 20 -110 35 -49 15
-99 31 -110 35 -11 4 -40 13 -65 20 -84 23 -115 33 -135 40 -11 5 -47 16 -80
25 -33 10 -64 21 -70 26 -5 5 -19 9 -32 9 -13 0 -31 4 -41 9 -9 5 -37 15 -62
21 -77 21 -114 32 -135 40 -11 4 -60 20 -110 35 -49 15 -99 31 -110 35 -11 4
-40 13 -65 20 -25 6 -53 16 -62 21 -10 5 -29 9 -43 9 -22 0 -126 29 -180 50
-11 4 -40 13 -65 20 -25 6 -53 16 -62 21 -10 5 -27 9 -38 9 -11 0 -28 4 -38 9
-9 5 -57 21 -107 36 -49 15 -99 31 -110 35 -11 4 -40 13 -65 20 -25 6 -53 16
-62 21 -10 5 -27 9 -38 9 -11 0 -28 4 -38 9 -16 8 -213 71 -292 94 -19 5 -43
13 -52 18 -10 5 -27 9 -38 9 -11 0 -28 4 -38 9 -9 5 -44 17 -77 27 -33 9 -67
20 -75 24 -28 14 -91 32 -96 28 -2 -3 35 -40 83 -84 49 -43 126 -115 173 -160
104 -98 189 -176 214 -195 10 -8 57 -50 105 -94 47 -44 115 -106 151 -139 36
-32 101 -93 145 -135 44 -42 107 -100 140 -130 33 -30 98 -91 145 -135 47 -45
110 -103 140 -130 30 -27 93 -86 140 -130 47 -45 137 -128 200 -186 62 -58
123 -114 134 -125 12 -11 53 -49 91 -85 74 -68 219 -202 480 -446 89 -82 188
-174 222 -205 l61 -56 99 -12 c54 -6 116 -13 138 -16 22 -3 85 -10 140 -15 94
-9 164 -16 403 -40 53 -5 142 -14 197 -19 55 -6 159 -18 230 -26 72 -9 173
-21 225 -26 52 -5 139 -14 193 -19 53 -6 141 -14 195 -20 53 -5 121 -12 150
-16 l52 -7 -2 -691 -3 -691 -1008 -3 -1007 -2 -167 252 c-92 139 -174 264
-183 278 -16 27 -155 237 -516 780 -126 190 -231 350 -234 356 -3 5 -53 82
-111 170 -59 87 -191 287 -294 444 -104 157 -263 398 -354 535 -91 138 -168
255 -171 260 -3 6 -82 125 -176 265 -93 140 -243 363 -331 496 l-161 241 -119
38 c-65 20 -124 39 -130 41 -10 2 -13 90 -15 375 l-3 372 -50 15 c-27 8 -95
29 -150 47 -55 17 -120 38 -145 45 -25 7 -54 16 -65 20 -11 4 -40 13 -65 20
-25 7 -76 23 -114 36 -38 13 -71 24 -73 24 -4 0 -44 -64 -80 -130 -17 -30 -47
-84 -68 -120 -21 -36 -46 -81 -57 -100 -139 -247 -164 -281 -183 -250 -3 6
-15 10 -26 10 -10 0 -27 4 -37 9 -9 5 -98 35 -197 66 -99 32 -189 61 -200 65
-11 4 -87 29 -170 55 -82 26 -159 51 -170 55 -11 4 -87 29 -170 55 -82 26
-159 50 -170 55 -11 4 -54 18 -95 30 -98 29 -112 34 -195 63 -38 13 -104 34
-145 47 -41 12 -84 26 -95 30 -11 4 -38 13 -60 19 -22 7 -69 23 -105 36 -36
12 -99 32 -140 45 -41 12 -83 26 -92 31 -10 5 -27 9 -37 9 -11 0 -23 5 -26 10
-8 12 -25 13 -25 1z m2543 -971 c5 -495 4 -551 -9 -520 -8 19 -19 50 -23 70
-5 19 -23 89 -41 155 -18 66 -42 158 -55 205 -12 47 -34 129 -49 182 -14 54
-26 107 -26 117 0 17 34 88 110 226 15 28 37 70 50 94 12 24 25 39 30 35 4 -5
10 -259 13 -564z"/>
<path d="M4800 7604 c-12 -32 -158 -328 -655 -1329 -183 -368 -399 -805 -480
-970 -81 -165 -227 -462 -325 -660 -98 -198 -255 -517 -350 -710 -95 -192
-237 -481 -316 -641 -79 -160 -144 -296 -144 -302 0 -7 -4 -12 -10 -12 -5 0
-10 -5 -10 -11 0 -6 -85 -183 -189 -393 -104 -209 -255 -516 -336 -681 -81
-165 -196 -399 -256 -521 -60 -121 -109 -223 -109 -227 0 -4 107 -6 237 -5
l237 3 75 151 c42 83 86 173 98 200 12 27 31 65 42 84 18 33 93 184 541 1095
188 384 201 409 235 475 27 53 383 772 644 1305 217 441 233 472 254 510 8 17
106 215 217 440 197 398 308 622 442 890 36 72 153 306 260 521 l194 392 -63
92 c-35 51 -63 95 -63 99 0 5 -9 16 -20 26 -11 10 -20 22 -20 26 0 7 -93 148
-116 178 -2 2 -8 -9 -14 -25z"/>
<path d="M4961 6673 c-111 -225 -215 -433 -231 -463 -16 -30 -102 -199 -189
-375 l-160 -320 6 -2188 6 -2187 549 2 c301 2 548 6 548 11 0 4 0 410 0 902
l0 895 -124 0 c-104 0 -125 3 -130 16 -3 9 -6 150 -6 314 0 244 3 300 14 309
10 8 55 11 136 10 68 -1 126 3 131 8 6 6 9 32 7 59 l-3 49 -135 3 c-92 2 -137
6 -142 15 -9 14 -11 578 -2 601 5 14 27 16 140 16 l134 0 0 1114 0 1113 -162
251 c-90 138 -168 252 -174 252 -7 0 -102 -183 -213 -407z m127 -2331 c9 -7
12 -76 10 -313 l-3 -304 -300 0 -300 0 -3 300 c-1 165 0 305 3 312 3 10 70 13
292 13 158 0 294 -4 301 -8z m-5 -754 c16 -12 17 -40 15 -323 l-3 -310 -300 0
-300 0 -3 314 c-2 245 1 316 10 323 22 14 562 10 581 -4z"/>
<path d="M4052 4848 c-121 -244 -371 -746 -556 -1117 l-336 -674 0 -959 0
-958 563 2 562 3 3 2064 c1 1136 -2 2069 -6 2073 -5 5 -108 -191 -230 -434z"/>
<path d="M11290 3984 c-4 -108 3 -561 8 -566 10 -10 378 -42 735 -64 l117 -7
-2 279 -3 279 -80 7 c-73 6 -142 12 -400 38 -49 5 -137 13 -195 19 -58 5 -122
13 -142 17 -21 4 -38 3 -38 -2z"/>
<path d="M12242 3882 c-8 -23 8 -526 18 -536 5 -5 78 -13 162 -17 180 -10 455
-28 481 -31 18 -3 19 10 18 267 l0 270 -83 6 c-46 4 -137 11 -203 18 -406 38
-387 37 -393 23z"/>
<path d="M11304 3296 c-3 -7 -3 -108 -2 -226 l3 -215 50 -7 c28 -5 167 -12
310 -18 143 -5 311 -13 373 -16 l112 -7 -2 224 -3 224 -105 7 c-58 4 -177 12
-265 17 -88 6 -178 13 -200 16 -93 11 -267 11 -271 1z"/>
<path d="M12242 3034 l3 -219 333 0 333 0 0 193 c0 106 -2 196 -5 201 -6 9
-101 16 -331 26 -71 3 -176 8 -233 11 l-102 6 2 -218z"/>
<path d="M1600 820 l0 -180 7160 0 7160 0 0 180 0 180 -7160 0 -7160 0 0 -180z"/>
</g>
</svg>
